<?xml version="1.0" standalone="no"?>
<!DOCTYPE svg PUBLIC "-//W3C//DTD SVG 20010904//EN"
 "http://www.w3.org/TR/2001/REC-SVG-20010904/DTD/svg10.dtd">
<svg version="1.0" xmlns="http://www.w3.org/2000/svg"
 width="650.000000pt" height="528.000000pt" viewBox="0 0 650.000000 528.000000"
 preserveAspectRatio="xMidYMid meet">

<g transform="translate(0.000000,528.000000) scale(0.100000,-0.100000)"
fill="#000000" stroke="none">
<path d="M407 5173 c-4 -3 -7 -433 -7 -955 l0 -948 105 0 105 0 0 -30 c0 -99
100 -207 211 -229 28 -6 -103 -9 -353 -10 l-398 -1 0 -1410 0 -1410 1380 0
1380 0 0 195 0 195 1765 0 1765 0 -2 952 -3 953 -387 3 -388 2 0 955 0 955
-1425 0 -1425 0 0 395 0 395 -1158 0 c-637 0 -1162 -3 -1165 -7z m193 -33 c0
-20 -5 -30 -15 -30 -10 0 -15 10 -15 30 0 20 5 30 15 30 10 0 15 -10 15 -30z
m480 20 c-8 -5 -108 -10 -230 -10 -122 0 -222 5 -230 10 -10 6 68 10 230 10
162 0 240 -4 230 -10z m60 -20 c0 -20 -5 -30 -15 -30 -10 0 -15 10 -15 30 0
20 5 30 15 30 10 0 15 -10 15 -30z m170 0 c0 -20 -5 -30 -15 -30 -10 0 -15 10
-15 30 0 20 5 30 15 30 10 0 15 -10 15 -30z m490 20 c-8 -5 -108 -10 -230 -10
-122 0 -222 5 -230 10 -10 6 68 10 230 10 162 0 240 -4 230 -10z m60 -20 c0
-23 -4 -30 -20 -30 -16 0 -20 7 -20 30 0 23 4 30 20 30 16 0 20 -7 20 -30z
m140 0 c0 -20 -5 -30 -15 -30 -10 0 -15 10 -15 30 0 20 5 30 15 30 10 0 15
-10 15 -30z m490 20 c-8 -5 -108 -10 -230 -10 -122 0 -222 5 -230 10 -10 6 68
10 230 10 162 0 240 -4 230 -10z m60 -20 c0 -23 -4 -30 -20 -30 -16 0 -20 7
-20 30 0 23 4 30 20 30 16 0 20 -7 20 -30z m-1470 -15 c11 -13 -16 -15 -231
-15 -216 0 -241 2 -223 15 29 22 436 22 454 0z m720 0 c11 -13 -16 -15 -230
-15 -214 0 -241 2 -230 15 10 12 49 15 230 15 181 0 220 -3 230 -15z m690 0
c11 -13 -16 -15 -230 -15 -214 0 -241 2 -230 15 10 12 49 15 230 15 181 0 220
-3 230 -15z m160 -900 l0 -875 -75 0 c-58 0 -77 -4 -81 -15 -5 -13 -36 -15
-190 -15 -156 0 -184 -2 -184 -15 0 -12 31 -15 193 -18 105 -1 -87 -2 -428 -2
-341 0 -533 1 -427 2 161 3 192 6 192 18 0 13 -28 15 -184 15 -154 0 -185 2
-190 15 -5 13 -59 15 -401 15 l-395 0 0 875 0 875 1085 0 1085 0 0 -875z m270
125 c0 -20 -5 -30 -15 -30 -10 0 -15 10 -15 30 0 20 5 30 15 30 10 0 15 -10
15 -30z m680 0 l0 -30 -330 0 -330 0 0 30 0 30 330 0 330 0 0 -30z m50 0 c0
-23 -4 -30 -20 -30 -16 0 -20 7 -20 30 0 23 4 30 20 30 16 0 20 -7 20 -30z
m380 0 c0 -23 -4 -30 -20 -30 -16 0 -20 7 -20 30 0 23 4 30 20 30 16 0 20 -7
20 -30z m480 20 c-8 -5 -108 -10 -230 -10 -122 0 -222 5 -230 10 -10 6 68 10
230 10 162 0 240 -4 230 -10z m60 -20 c0 -20 -5 -30 -15 -30 -10 0 -15 10 -15
30 0 20 5 30 15 30 10 0 15 -10 15 -30z m270 0 c0 -23 -4 -30 -20 -30 -16 0
-20 7 -20 30 0 23 4 30 20 30 16 0 20 -7 20 -30z m480 20 c-8 -5 -108 -10
-230 -10 -122 0 -222 5 -230 10 -10 6 68 10 230 10 162 0 240 -4 230 -10z m60
-20 c0 -23 -4 -30 -20 -30 -16 0 -20 7 -20 30 0 23 4 30 20 30 16 0 20 -7 20
-30z m-870 -15 c11 -13 -16 -15 -229 -15 -211 0 -240 2 -229 15 19 22 440 22
458 0z m810 0 c11 -13 -16 -15 -230 -15 -214 0 -241 2 -230 15 10 12 49 15
230 15 181 0 220 -3 230 -15z m-1510 -495 c0 -411 -2 -470 -15 -470 -13 0 -15
22 -15 139 0 84 -4 142 -10 146 -17 10 -112 -22 -162 -55 -58 -39 -103 -105
-119 -176 l-12 -54 -374 0 -373 0 0 470 0 470 540 0 540 0 0 -470z m1690 -200
c0 -663 0 -670 -20 -670 -19 0 -20 7 -20 161 l0 161 -47 -6 c-72 -10 -166 -60
-212 -112 -41 -47 -81 -135 -81 -179 l0 -25 -205 0 -205 0 0 60 0 60 85 0 85
0 0 81 c0 77 2 83 32 118 30 35 35 36 112 41 l81 5 0 75 0 75 -147 3 c-166 3
-194 -5 -228 -61 l-20 -32 0 82 0 83 248 2 c239 3 247 4 247 23 0 19 -8 20
-247 23 l-248 2 0 45 0 45 85 0 85 0 0 88 c0 86 1 89 33 120 30 29 38 31 112
34 l80 3 0 80 0 80 -159 0 -158 0 -39 -44 -39 -44 0 52 c0 44 -3 51 -20 51
-23 0 -23 -3 -20 -247 l2 -153 -76 0 -76 0 0 77 c0 73 -2 79 -32 110 -31 32
-34 33 -115 33 l-83 0 0 75 0 75 145 0 c152 0 190 -8 215 -47 8 -12 10 -13 7
-3 -2 8 -18 25 -37 38 -31 20 -44 22 -186 22 l-154 0 0 -85 0 -85 88 0 c83 0
90 -2 115 -28 23 -24 26 -36 29 -107 l3 -80 78 -3 77 -3 0 -49 0 -50 -246 0
-245 0 3 -22 3 -23 243 -3 242 -2 0 -72 c0 -69 -1 -71 -16 -50 -31 45 -63 52
-224 52 l-150 0 0 -85 0 -85 88 0 c83 0 90 -2 115 -28 23 -24 26 -36 29 -107
l3 -80 78 -3 77 -3 0 -64 0 -65 -209 0 -209 0 -11 50 c-30 140 -142 245 -283
265 l-48 7 0 -161 c0 -101 -4 -161 -10 -161 -7 0 -10 230 -10 670 l0 670 805
0 805 0 0 -670z m-402 383 l3 -73 -78 0 c-76 0 -78 -1 -115 -37 -38 -37 -38
-37 -38 -120 l0 -83 -75 0 -75 0 0 143 c0 229 20 249 240 245 l135 -3 3 -72z
m-1358 -518 l0 -135 -126 0 -126 0 7 38 c17 94 74 168 160 208 87 41 85 43 85
-111z m30 0 c0 -83 -4 -135 -10 -135 -6 0 -10 52 -10 135 0 83 4 135 10 135 6
0 10 -52 10 -135z m839 -40 c47 -24 61 -76 61 -225 l0 -130 -75 0 -75 0 0 77
c0 73 -2 79 -32 110 -31 32 -34 33 -115 33 l-83 0 0 75 0 75 145 0 c109 0 153
-4 174 -15z m491 -55 l0 -70 -79 0 -79 0 -36 -44 c-34 -42 -36 -48 -36 -120
l0 -76 -75 0 -75 0 0 139 c0 231 10 241 233 241 l147 0 0 -70z m-1620 -90 c0
-22 -4 -40 -10 -40 -5 0 -10 18 -10 40 0 22 5 40 10 40 6 0 10 -18 10 -40z
m290 0 l0 -40 -140 0 -140 0 0 40 0 40 140 0 140 0 0 -40z m30 0 c0 -22 -4
-40 -10 -40 -5 0 -10 18 -10 40 0 22 5 40 10 40 6 0 10 -18 10 -40z m-2540
-15 c0 -16 -6 -25 -15 -25 -9 0 -15 9 -15 25 0 16 6 25 15 25 9 0 15 -9 15
-25z m1280 0 c0 -16 -6 -25 -15 -25 -9 0 -15 9 -15 25 0 16 6 25 15 25 9 0 15
-9 15 -25z m-1362 -2 c-27 -2 -69 -2 -95 0 -27 2 -5 3 47 3 52 0 74 -1 48 -3z
m375 0 c-51 -2 -136 -2 -190 0 -54 1 -12 3 92 3 105 0 149 -2 98 -3z m860 0
c-51 -2 -136 -2 -190 0 -54 1 -12 3 92 3 105 0 149 -2 98 -3z m275 0 c-27 -2
-69 -2 -95 0 -27 2 -5 3 47 3 52 0 74 -1 48 -3z m-1775 -30 c-7 -2 -21 -2 -30
0 -10 3 -4 5 12 5 17 0 24 -2 18 -5z m3014 -225 c-1 -46 -3 -11 -3 77 0 88 2
125 3 83 2 -42 2 -114 0 -160z m140 193 c96 -49 159 -150 169 -270 l6 -71
-161 0 -161 0 0 30 c0 17 5 30 10 30 6 0 10 60 10 159 l0 158 45 -8 c24 -5 61
-17 82 -28z m1368 -284 c8 -4 15 -19 15 -32 l0 -25 -160 0 -160 0 1 53 c1 155
93 276 238 313 l46 11 3 -156 c2 -124 5 -157 17 -164z m-1625 123 l0 -190 835
0 835 0 0 -205 0 -205 -535 0 -535 0 0 -915 0 -915 -825 0 -825 0 0 -195 0
-195 -680 0 c-598 0 -680 2 -680 15 0 10 -10 15 -30 15 -16 0 -30 5 -30 10 0
6 -60 10 -160 10 -182 0 -174 -5 -143 86 11 33 34 67 72 105 65 65 124 89 225
92 l66 2 0 78 0 77 -35 0 -35 0 0 -69 0 -68 -67 -17 c-85 -20 -153 -66 -198
-131 -36 -52 -73 -171 -58 -186 5 -5 80 -10 168 -12 88 -1 -109 -4 -437 -5
l-598 -2 0 415 0 415 595 0 595 0 0 -35 c0 -33 2 -35 35 -35 l35 0 0 90 0 90
-30 0 c-16 0 -30 5 -30 10 0 6 -60 10 -160 10 -182 0 -174 -5 -143 86 23 67
110 154 177 177 27 9 80 17 118 17 l68 0 0 80 0 80 -35 0 -34 0 -3 -72 -3 -73
-48 -7 c-135 -19 -249 -135 -271 -275 l-6 -43 165 0 c103 0 165 -4 165 -10 0
-7 -205 -10 -595 -10 l-595 0 0 415 0 415 595 0 595 0 0 -35 c0 -33 2 -35 35
-35 l35 0 0 90 0 90 -30 0 c-16 0 -30 5 -30 10 0 6 -60 10 -161 10 l-162 0 6
36 c9 52 45 121 85 161 62 62 144 91 265 93 l27 0 0 75 0 75 -35 0 -35 0 0
-69 0 -69 -44 -6 c-68 -10 -161 -61 -200 -110 -41 -49 -70 -114 -80 -173 l-6
-43 165 0 c103 0 165 -4 165 -10 0 -7 -205 -10 -595 -10 l-595 0 0 420 0 420
595 0 595 0 0 -35 c0 -33 2 -35 35 -35 l35 0 0 75 0 75 -235 0 c-150 0 -235 4
-235 10 0 6 -13 10 -30 10 l-30 0 0 121 0 121 30 -4 c17 -3 33 -1 36 4 3 4
651 8 1440 8 l1434 0 0 -190z m1640 40 c0 -93 -4 -150 -10 -150 -6 0 -10 57
-10 150 0 93 4 150 10 150 6 0 10 -57 10 -150z m-4600 130 c0 -6 -45 -10 -115
-10 -70 0 -115 4 -115 10 0 6 45 10 115 10 70 0 115 -4 115 -10z m10 -125 l0
-105 -27 0 c-84 1 -185 90 -207 183 l-6 27 120 0 120 0 0 -105z m53 -122 c-7
-2 -21 -2 -30 0 -10 3 -4 5 12 5 17 0 24 -2 18 -5z m2994 -90 c-3 -10 -5 -2
-5 17 0 19 2 27 5 18 2 -10 2 -26 0 -35z m350 0 c-3 -10 -5 -2 -5 17 0 19 2
27 5 18 2 -10 2 -26 0 -35z m860 0 c-3 -10 -5 -2 -5 17 0 19 2 27 5 18 2 -10
2 -26 0 -35z m350 0 c-3 -10 -5 -2 -5 17 0 19 2 27 5 18 2 -10 2 -26 0 -35z
m-4077 -38 c0 -9 -9 -15 -25 -15 -16 0 -25 6 -25 15 0 9 9 15 25 15 16 0 25
-6 25 -15z m0 -335 c0 -15 -7 -20 -25 -20 -18 0 -25 5 -25 20 0 15 7 20 25 20
18 0 25 -5 25 -20z m-7 -107 c-7 -2 -21 -2 -30 0 -10 3 -4 5 12 5 17 0 24 -2
18 -5z m4897 -908 l0 -875 -895 0 -895 0 0 25 0 25 140 0 140 0 0 29 c0 85
-68 184 -158 228 l-58 29 43 18 c85 35 173 153 173 234 l0 32 -140 0 -140 0 0
565 0 565 895 0 895 0 0 -875z m-1800 775 c0 -16 -7 -20 -30 -20 -23 0 -30 4
-30 20 0 16 7 20 30 20 23 0 30 -4 30 -20z m-30 -210 c0 -111 -4 -180 -10
-180 -6 0 -11 -74 -13 -187 -1 -104 -3 -23 -5 180 -2 321 0 367 13 367 13 0
15 -27 15 -180z m30 -186 c0 -288 -3 -365 -12 -362 -10 4 -14 49 -16 171 -1
92 1 167 5 167 5 0 7 81 5 181 -3 168 -1 209 13 209 3 0 5 -165 5 -366z
m-3222 209 c-42 -2 -114 -2 -160 0 -46 1 -11 3 77 3 88 0 125 -2 83 -3z m125
-20 c-7 -2 -21 -2 -30 0 -10 3 -4 5 12 5 17 0 24 -2 18 -5z m7 -128 c0 -9 -9
-15 -25 -15 -16 0 -25 6 -25 15 0 9 9 15 25 15 16 0 25 -6 25 -15z m0 -335 c0
-15 -7 -20 -25 -20 -18 0 -25 5 -25 20 0 15 7 20 25 20 18 0 25 -5 25 -20z
m-7 -107 c-7 -2 -21 -2 -30 0 -10 3 -4 5 12 5 17 0 24 -2 18 -5z m3097 -13 c0
-16 -7 -20 -30 -20 -23 0 -30 4 -30 20 0 16 7 20 30 20 23 0 30 -4 30 -20z m0
-220 c0 -16 -7 -20 -30 -20 -23 0 -30 4 -30 20 0 16 7 20 30 20 23 0 30 -4 30
-20z m0 -305 l0 -275 -30 0 -30 0 0 275 0 275 30 0 30 0 0 -275z m212 268
c-40 -2 -103 -2 -140 0 -37 2 -4 3 73 3 77 0 107 -2 67 -3z m68 -30 c0 -31
-46 -117 -80 -151 -40 -41 -92 -67 -147 -77 l-43 -7 0 126 0 126 135 0 c122 0
135 -2 135 -17z m-3502 -20 c-42 -2 -114 -2 -160 0 -46 1 -11 3 77 3 88 0 125
-2 83 -3z m125 -20 c-7 -2 -21 -2 -30 0 -10 3 -4 5 12 5 17 0 24 -2 18 -5z m7
-128 c0 -9 -9 -15 -25 -15 -16 0 -25 6 -25 15 0 9 9 15 25 15 16 0 25 -6 25
-15z m3176 -90 c75 -22 128 -67 163 -137 51 -100 53 -98 -104 -98 l-135 0 0
125 c0 140 -4 134 76 110z m-3176 -245 c0 -15 -7 -20 -25 -20 -18 0 -25 5 -25
20 0 15 7 20 25 20 18 0 25 -5 25 -20z m3302 -7 c-40 -2 -103 -2 -140 0 -37 2
-4 3 73 3 77 0 107 -2 67 -3z m-212 -33 c0 -16 -7 -20 -30 -20 -23 0 -30 4
-30 20 0 16 7 20 30 20 23 0 30 -4 30 -20z m-3097 -67 c-7 -2 -21 -2 -30 0
-10 3 -4 5 12 5 17 0 24 -2 18 -5z m-135 -320 c-43 -2 -113 -2 -155 0 -43 1
-8 3 77 3 85 0 120 -2 78 -3z m135 -30 c-7 -2 -21 -2 -30 0 -10 3 -4 5 12 5
17 0 24 -2 18 -5z"/>
<path d="M2590 4310 l0 -680 25 0 25 0 0 680 0 680 -25 0 -25 0 0 -680z m40 0
c0 -589 -2 -670 -15 -670 -13 0 -15 81 -15 670 0 589 2 670 15 670 13 0 15
-81 15 -670z"/>
<path d="M920 4772 c-19 -11 -39 -27 -44 -38 -6 -10 -15 -22 -20 -25 -4 -4 -5
-29 -1 -57 l7 -49 -36 -7 c-35 -7 -36 -8 -36 -51 0 -40 -2 -44 -27 -47 -22 -2
-28 -8 -27 -25 0 -16 -3 -20 -11 -13 -17 14 -45 -20 -51 -61 -6 -43 15 -84 43
-83 15 0 19 -5 15 -18 -3 -14 2 -18 26 -18 30 0 31 -2 34 -47 3 -45 5 -48 39
-56 l36 -8 -10 -44 c-9 -41 -8 -47 18 -81 37 -49 85 -69 131 -54 19 6 34 15
34 18 -1 17 -19 34 -30 27 -18 -11 -100 15 -111 36 -6 12 -6 31 -1 51 8 31 12
33 48 31 21 -1 58 -5 80 -8 l42 -6 -18 -49 c-15 -41 -16 -52 -5 -67 9 -12 17
-15 23 -8 14 15 34 104 26 117 -5 8 3 9 26 5 18 -4 45 -7 61 -7 27 0 29 -3 29
-40 0 -29 5 -43 17 -47 9 -4 27 -18 38 -31 26 -31 89 -35 129 -9 23 15 25 21
15 33 -11 13 -9 14 14 9 26 -7 27 -5 27 31 l0 39 65 -3 c65 -4 65 -4 65 -34 0
-21 6 -31 20 -35 11 -3 20 -11 20 -17 0 -13 28 -30 67 -41 28 -8 93 20 93 39
0 9 9 16 20 16 17 0 20 7 20 45 l0 45 49 0 c27 0 56 3 64 6 12 4 14 0 10 -14
-6 -23 13 -99 28 -107 5 -4 17 -1 25 6 12 10 13 9 8 -4 -4 -12 2 -20 21 -27
36 -14 94 2 124 34 22 23 22 25 4 35 -16 10 -15 10 7 8 27 -2 30 9 16 70 -7
31 -7 32 38 38 l46 7 0 49 c0 48 1 49 30 49 17 0 30 5 30 13 0 7 10 17 22 22
34 15 45 68 24 112 -12 25 -22 34 -34 30 -14 -3 -18 2 -18 17 1 16 -6 22 -26
24 -26 3 -28 7 -28 47 0 47 0 47 -65 57 -16 3 -19 10 -16 33 8 62 6 70 -12 69
-13 -2 -15 1 -7 10 14 18 -29 56 -75 66 -47 11 -90 -3 -81 -27 6 -14 4 -14
-10 -2 -14 11 -18 11 -30 -5 -7 -10 -16 -38 -20 -62 -7 -48 -11 -50 -86 -38
-36 6 -38 9 -38 44 0 32 -5 41 -39 65 -49 33 -120 38 -151 10 -14 -13 -17 -22
-10 -29 5 -5 10 -14 10 -20 0 -5 -6 -2 -13 9 -19 25 -37 10 -37 -31 l0 -34
-65 0 -65 0 0 33 c0 39 -40 75 -98 88 -43 9 -102 -12 -102 -36 0 -9 -5 -13
-11 -9 -15 9 -29 -15 -29 -52 0 -36 -13 -44 -70 -44 l-39 0 -12 55 c-14 63
-23 73 -46 53 -10 -8 -14 -8 -10 -1 9 14 -30 43 -58 43 -11 0 -36 -8 -55 -18z
m35 -27 c-38 -13 -71 -22 -72 -21 -1 1 1 6 5 12 14 21 48 33 92 33 l45 0 -70
-24z m446 7 c17 -15 19 -21 9 -27 -9 -5 -11 -4 -6 3 9 16 -32 25 -94 20 -27
-1 -50 0 -50 4 0 24 111 24 141 0z m367 2 c23 -16 29 -34 11 -34 -5 0 -7 4 -4
10 8 14 -36 23 -95 18 -27 -1 -50 0 -50 4 0 22 107 24 138 2z m351 3 c14 -6
26 -18 29 -25 3 -11 -3 -10 -26 2 -17 9 -41 16 -54 17 -13 0 -32 4 -43 9 -15
7 -9 9 25 9 25 0 56 -5 69 -12z m-1041 -64 c11 -48 7 -57 -8 -18 -18 47 -24
81 -12 70 6 -5 15 -29 20 -52z m907 40 c-3 -10 -9 -30 -12 -46 -5 -24 -23 -49
-23 -32 0 24 24 95 32 95 6 0 7 -8 3 -17z m-958 -1 c10 -6 43 -82 43 -97 0 -1
-34 -6 -75 -10 -41 -4 -78 -7 -82 -8 -13 -4 -22 55 -11 79 15 33 94 56 125 36z
m361 -8 c12 -8 22 -26 22 -40 0 -22 -4 -24 -42 -24 -24 0 -60 -3 -80 -6 -34
-6 -38 -4 -38 15 0 56 87 91 138 55z m370 0 c27 -19 33 -80 6 -70 -9 3 -45 6
-80 6 -57 0 -64 2 -64 19 0 48 91 78 138 45z m341 5 c40 -14 50 -35 39 -77
l-9 -34 -77 7 c-42 4 -78 8 -79 9 -1 1 4 21 11 45 18 61 46 74 115 50z m-829
-3 c0 -3 -4 -8 -10 -11 -5 -3 -10 -1 -10 4 0 6 5 11 10 11 6 0 10 -2 10 -4z
m-30 -41 c0 -19 -4 -35 -10 -35 -5 0 -10 16 -10 35 0 19 5 35 10 35 6 0 10
-16 10 -35z m200 5 c0 -16 -4 -30 -10 -30 -5 0 -10 14 -10 30 0 17 5 30 10 30
6 0 10 -13 10 -30z m170 0 c0 -16 -4 -30 -10 -30 -5 0 -10 14 -10 30 0 17 5
30 10 30 6 0 10 -13 10 -30z m197 -22 c-2 -13 -4 -5 -4 17 -1 22 1 32 4 23 2
-10 2 -28 0 -40z m-924 34 c-10 -6 -10 -17 -3 -42 12 -43 12 -50 1 -50 -10 0
-24 77 -16 91 4 5 12 9 18 9 9 0 9 -2 0 -8z m1293 -19 c-3 -10 -8 -30 -12 -45
-3 -16 -10 -28 -14 -28 -4 0 -3 20 3 45 6 25 14 45 19 45 5 0 7 -8 4 -17z
m-276 -53 c102 -10 264 -32 328 -46 22 -4 22 -5 22 -198 l0 -193 -102 -16
c-229 -37 -298 -42 -618 -42 -321 0 -420 6 -619 41 -46 8 -88 14 -92 14 -5 0
-9 88 -9 195 0 194 0 195 23 200 102 23 276 43 517 59 85 6 422 -3 550 -14z
m-1110 -150 c0 -5 -11 -10 -25 -10 -14 0 -25 5 -25 10 0 6 11 10 25 10 14 0
25 -4 25 -10z m1515 0 c4 -6 -5 -10 -19 -10 -14 0 -26 5 -26 10 0 6 9 10 19
10 11 0 23 -4 26 -10z m-1515 -95 c0 -81 -10 -93 -46 -54 -36 40 -18 129 27
129 17 0 19 -8 19 -75z m1515 60 c13 -11 19 -27 18 -53 -1 -67 -5 -77 -35 -79
l-28 -2 0 74 c0 79 7 88 45 60z m-1590 -60 c0 -36 -3 -65 -6 -65 -4 0 -12 13
-19 29 -9 23 -9 38 0 65 6 20 15 36 18 36 4 0 7 -29 7 -65z m1645 0 c0 -23 -6
-47 -12 -53 -10 -8 -13 3 -13 53 0 50 3 61 13 53 6 -6 12 -30 12 -53z m-1577
-92 c-7 -2 -21 -2 -30 0 -10 3 -4 5 12 5 17 0 24 -2 18 -5z m1520 0 c-7 -2
-21 -2 -30 0 -10 3 -4 5 12 5 17 0 24 -2 18 -5z m-1418 -160 c-3 -21 -11 -42
-17 -48 -9 -10 -2 59 9 78 11 18 15 4 8 -30z m1251 -8 c9 -48 -15 -82 -62 -91
-53 -10 -81 7 -89 55 -4 23 -12 42 -18 42 -10 1 112 24 150 28 7 0 15 -15 19
-34z m28 15 c3 -11 9 -29 12 -40 3 -11 1 -20 -4 -20 -5 0 -14 18 -20 40 -10
40 1 58 12 20z m-1086 -62 c-9 -43 -28 -75 -28 -49 0 23 23 91 31 91 4 0 3
-19 -3 -42z m162 7 c0 -19 -4 -35 -10 -35 -5 0 -10 16 -10 35 0 19 5 35 10 35
6 0 10 -16 10 -35z m168 7 c6 -41 -15 -53 -88 -51 l-66 2 -3 39 -2 39 78 -3
c73 -3 78 -5 81 -26z m371 -11 l-3 -39 -75 0 -76 0 -2 33 c-3 38 4 41 100 44
l58 1 -2 -39z m31 4 c0 -19 -4 -35 -10 -35 -5 0 -10 16 -10 35 0 19 5 35 10
35 6 0 10 -16 10 -35z m168 -17 c6 -21 7 -40 3 -43 -8 -4 -31 60 -31 86 0 23
18 -4 28 -43z m-538 12 c0 -16 -4 -30 -10 -30 -5 0 -10 14 -10 30 0 17 5 30
10 30 6 0 10 -13 10 -30z m170 0 c0 -16 -4 -30 -10 -30 -5 0 -10 14 -10 30 0
17 5 30 10 30 6 0 10 -13 10 -30z m-646 -56 c63 -18 69 -24 20 -24 -21 0 -54
9 -71 20 -35 21 -45 37 -15 25 9 -4 39 -14 66 -21z m1174 -1 c-20 -19 -118
-31 -118 -14 0 6 15 11 33 11 17 1 46 7 62 14 36 16 45 12 23 -11z m-750 -10
c-6 -7 -29 -13 -52 -13 -23 0 -50 6 -59 13 -15 10 -6 12 52 12 54 0 67 -3 59
-12z m365 0 c-9 -7 -33 -13 -53 -13 -20 0 -44 6 -53 13 -15 10 -6 12 53 12 59
0 68 -2 53 -12z"/>
<path d="M761 3704 c-11 -13 -15 -14 -22 -2 -6 10 -13 10 -27 2 -9 -6 -32 -15
-51 -19 -20 -4 -31 -12 -27 -20 3 -9 -2 -11 -16 -7 -15 4 -19 1 -16 -15 1 -11
-3 -28 -11 -37 -8 -9 -14 -30 -13 -46 0 -16 -4 -32 -9 -35 -15 -10 -10 -25 7
-25 14 0 14 -3 4 -15 -7 -9 -10 -18 -7 -21 9 -10 27 6 27 24 0 13 2 13 14 -3
12 -17 12 -22 0 -39 -21 -31 -17 -39 15 -33 25 5 28 3 24 -13 -5 -18 -1 -19
36 -16 22 2 44 0 47 -5 3 -6 11 -5 20 2 8 6 17 9 21 5 3 -3 13 3 21 15 10 15
21 19 38 15 27 -7 45 17 26 36 -15 15 -4 37 16 31 15 -3 17 4 18 51 1 43 -2
56 -14 56 -11 0 -12 3 -3 14 10 11 5 22 -26 52 -21 21 -44 37 -50 36 -7 -2
-13 4 -13 13 0 19 -11 19 -29 -1z m59 -103 c0 -11 3 -28 6 -38 5 -12 4 -15 -3
-8 -15 15 -25 65 -13 65 5 0 10 -9 10 -19z m-148 -16 c-5 -30 3 -31 43 -5 40
26 43 25 47 -12 3 -30 6 -33 36 -34 38 -1 47 -7 38 -29 -5 -14 -8 -14 -31 1
-24 16 -27 16 -42 1 -15 -15 -15 -17 1 -23 15 -6 13 -9 -11 -24 -25 -15 -29
-15 -40 -1 -10 13 -14 14 -22 2 -7 -10 -12 -8 -24 10 -12 17 -14 26 -5 36 7 9
7 17 0 26 -14 16 -18 49 -9 65 14 21 24 13 19 -13z m-28 -44 c3 -5 -1 -14 -8
-20 -12 -10 -13 -8 -9 8 6 23 9 25 17 12z"/>
<path d="M1330 3649 c0 -15 7 -29 15 -33 19 -7 19 14 0 40 -14 18 -14 18 -15
-7z"/>
<path d="M1366 3661 c-4 -5 -2 -20 3 -33 9 -21 10 -21 10 10 1 32 -3 39 -13
23z"/>
<path d="M1610 3638 c0 -25 3 -29 10 -18 8 12 12 12 18 2 6 -9 9 -3 10 17 0
24 -4 31 -19 31 -15 0 -19 -7 -19 -32z m30 12 c0 -5 -4 -10 -10 -10 -5 0 -10
5 -10 10 0 6 5 10 10 10 6 0 10 -4 10 -10z"/>
<path d="M1394 3646 c-4 -10 -2 -22 4 -28 8 -8 13 -7 18 6 4 10 2 22 -4 28 -8
8 -13 7 -18 -6z"/>
<path d="M1434 3646 c-4 -10 -2 -22 4 -28 8 -8 13 -7 18 6 4 10 2 22 -4 28 -8
8 -13 7 -18 -6z"/>
<path d="M1468 3635 c2 -14 6 -25 8 -25 2 0 4 11 4 25 0 14 -4 25 -9 25 -4 0
-6 -11 -3 -25z"/>
<path d="M1517 3653 c-4 -3 -7 -16 -6 -27 1 -18 2 -18 9 4 l8 25 1 -25 c1 -18
4 -21 10 -12 6 10 10 8 14 -8 7 -28 27 -17 27 15 0 26 -15 41 -25 25 -5 -8
-11 -8 -19 -1 -7 6 -16 8 -19 4z m50 -25 c-3 -8 -6 -5 -6 6 -1 11 2 17 5 13 3
-3 4 -12 1 -19z"/>
<path d="M1664 3646 c-6 -17 2 -36 17 -36 12 0 12 37 -1 45 -6 3 -13 -1 -16
-9z"/>
<path d="M1704 3646 c-6 -17 2 -36 17 -36 12 0 12 37 -1 45 -6 3 -13 -1 -16
-9z"/>
<path d="M1745 3652 c-3 -3 -5 -15 -4 -26 0 -21 1 -21 9 -1 6 13 9 15 9 5 1
-13 2 -13 11 0 9 13 11 13 20 0 5 -8 10 -10 10 -5 0 24 -39 43 -55 27z"/>
<path d="M1492 3630 c0 -14 2 -19 5 -12 2 6 2 18 0 25 -3 6 -5 1 -5 -13z"/>
<path d="M2920 4229 c0 -11 -4 -17 -10 -14 -5 3 -10 -1 -10 -10 0 -12 -6 -14
-27 -9 -26 7 -26 7 -10 -17 25 -34 22 -37 -30 -31 l-48 5 23 -25 c12 -13 22
-30 22 -36 0 -7 6 -12 13 -12 6 0 1 -10 -13 -21 l-25 -20 31 3 31 4 -14 -34
c-17 -41 -10 -52 17 -27 11 10 20 14 20 9 0 -5 7 0 15 10 12 16 15 17 15 4 0
-8 7 -21 15 -28 12 -10 16 -9 21 4 8 20 23 20 46 -1 25 -22 29 -15 13 30 -12
36 -12 37 8 31 19 -6 20 -5 9 9 -11 13 -9 17 15 25 l28 10 -25 9 -24 10 22 14
c29 18 28 29 -3 29 -18 0 -23 4 -19 15 5 11 2 13 -11 8 -15 -5 -17 -2 -11 20
7 31 0 34 -26 10 -17 -15 -19 -14 -29 15 -12 36 -29 42 -29 11z"/>
<path d="M3412 4181 c-13 -3 -22 -8 -20 -11 2 -3 -5 -18 -15 -33 -11 -16 -13
-27 -6 -27 6 0 9 -9 6 -20 -7 -28 23 -42 80 -38 44 3 48 5 54 36 4 18 3 35 -2
38 -5 3 -9 16 -9 30 0 17 -6 24 -19 24 -11 0 -25 2 -33 4 -7 2 -23 1 -36 -3z"/>
<path d="M3251 3965 c-21 -19 -31 -36 -31 -55 0 -81 25 -90 250 -90 l182 0 29
29 c36 36 37 70 5 108 l-24 28 -190 3 -189 3 -32 -26z m430 -14 c26 -32 24
-67 -6 -96 -24 -25 -26 -25 -205 -25 -218 0 -240 7 -240 77 0 23 8 38 27 53
26 20 36 21 216 18 185 -3 189 -4 208 -27z"/>
<path d="M2746 3885 c-12 -32 -7 -470 6 -483 16 -16 204 -17 214 -1 3 6 1 14
-5 18 -9 6 -8 16 3 41 12 29 12 39 -1 75 -12 36 -12 47 0 76 11 28 11 41 1 77
-9 29 -10 51 -4 67 5 13 8 50 6 82 l-3 58 -105 3 c-90 2 -107 0 -112 -13z
m204 -5 c0 -6 -37 -10 -90 -10 l-90 0 0 -225 0 -225 90 0 c53 0 90 -4 90 -10
0 -15 -173 -13 -188 2 -13 13 -18 431 -6 462 5 13 24 16 100 16 56 0 94 -4 94
-10z m2 -55 c4 -18 3 -43 -3 -62 -10 -32 -12 -33 -70 -33 l-59 0 0 65 0 66 62
-3 c59 -3 62 -4 70 -33z m-152 -35 c0 -33 -4 -60 -10 -60 -6 0 -10 27 -10 60
0 33 4 60 10 60 6 0 10 -27 10 -60z m152 -108 c6 -21 5 -46 -2 -68 -11 -34
-12 -34 -70 -34 l-58 0 -4 70 -3 71 64 -3 c64 -3 65 -3 73 -36z m-152 -37 c0
-37 -4 -65 -10 -65 -6 0 -10 28 -10 65 0 37 4 65 10 65 6 0 10 -28 10 -65z m0
-151 c0 -41 -4 -63 -10 -59 -5 3 -10 33 -10 66 0 33 4 59 10 59 6 0 10 -29 10
-66z m151 39 c7 -20 7 -39 -1 -65 l-11 -38 -59 0 -60 0 0 65 0 65 60 0 c57 0
61 -2 71 -27z"/>
<path d="M4187 4113 c-11 -11 -8 -183 3 -183 6 0 10 38 10 95 0 95 -1 101 -13
88z"/>
<path d="M5170 4011 c0 -50 5 -93 10 -96 6 -4 10 28 10 89 0 57 -4 96 -10 96
-6 0 -10 -36 -10 -89z"/>
<path d="M4301 3869 c-27 -16 -31 -23 -20 -30 10 -6 10 -9 2 -9 -20 0 -15 -44
7 -72 35 -45 93 -43 132 6 23 28 22 54 -2 94 -16 26 -26 32 -52 32 -18 0 -48
-9 -67 -21z"/>
<path d="M4945 3856 c-31 -41 -29 -75 7 -113 28 -30 69 -29 106 2 62 52 38
128 -44 141 -39 6 -43 4 -69 -30z"/>
<path d="M4180 3425 c0 -57 4 -95 10 -95 6 0 10 38 10 95 0 57 -4 95 -10 95
-6 0 -10 -38 -10 -95z"/>
<path d="M5180 3420 c0 -53 4 -90 10 -90 6 0 10 37 10 90 0 53 -4 90 -10 90
-6 0 -10 -37 -10 -90z"/>
<path d="M4305 3261 c-62 -37 -35 -131 43 -146 28 -6 37 -2 62 25 17 18 30 41
30 51 0 20 -27 68 -45 81 -18 13 -59 8 -90 -11z"/>
<path d="M4951 3246 c-28 -29 -32 -39 -27 -63 11 -44 52 -81 84 -75 37 6 79
48 84 83 5 35 -32 76 -77 85 -25 4 -36 0 -64 -30z"/>
<path d="M330 2750 l0 -60 83 0 c82 0 82 0 110 -34 27 -35 27 -35 27 -195 l0
-161 65 0 65 0 0 211 c0 301 1 299 -215 299 l-135 0 0 -60z m307 26 l28 -24 3
-221 3 -221 -55 0 -56 0 0 156 0 155 -32 40 -31 39 -79 0 -78 0 0 50 0 50 134
0 c128 0 136 -1 163 -24z"/>
<path d="M263 2557 c-33 -33 -31 -127 3 -127 8 0 14 -7 14 -15 0 -23 78 -19
118 5 28 17 32 25 32 62 0 24 -4 48 -8 54 -32 47 -121 58 -159 21z"/>
<path d="M1750 2190 c0 -67 4 -110 10 -110 6 0 10 37 10 90 l0 90 230 0 230 0
0 -37 0 -36 -22 20 c-43 39 -63 43 -217 43 l-151 0 0 -85 0 -85 83 0 c81 0 84
-1 115 -33 30 -31 32 -37 32 -110 l0 -77 80 0 80 0 0 -90 0 -90 -240 0 -240 0
0 -115 c0 -70 4 -115 10 -115 6 0 10 37 10 90 l0 90 35 0 35 0 0 -80 0 -80 83
0 c81 0 84 -1 115 -33 30 -31 32 -37 32 -110 l0 -77 80 0 80 0 0 -60 c0 -57 1
-60 25 -60 24 0 25 3 25 55 l0 55 80 0 80 0 0 83 c0 83 0 83 38 120 37 36 40
37 115 37 l77 0 0 75 0 75 45 0 44 0 3 -87 c2 -58 7 -88 16 -91 15 -5 18 173
2 183 -5 3 -10 15 -10 26 0 18 -9 19 -245 19 l-245 0 0 85 0 85 80 0 80 0 0
83 c0 83 0 83 38 120 37 36 40 37 115 37 l77 0 0 85 0 85 35 0 35 0 0 -95 c0
-57 4 -95 10 -95 6 0 10 38 10 95 l0 95 80 0 80 0 0 -90 c0 -116 18 -118 22
-2 l3 87 233 3 232 2 0 -42 c0 -41 0 -42 -16 -20 -31 45 -63 52 -224 52 l-150
0 0 -85 0 -85 83 0 c81 0 84 -1 115 -33 30 -31 32 -37 32 -110 l0 -77 80 0 80
0 0 -90 0 -90 -242 -2 -243 -3 -3 -112 c-2 -73 1 -113 8 -113 6 0 10 35 10 90
l0 90 40 0 40 0 0 -80 0 -80 83 0 c81 0 84 -1 115 -33 30 -31 32 -37 32 -110
l0 -77 80 0 80 0 0 -60 c0 -53 2 -60 20 -60 18 0 20 7 20 55 l0 55 85 0 85 0
0 83 c0 83 0 83 38 120 37 36 40 37 115 37 l77 0 0 75 0 75 45 0 45 0 0 -90
c0 -53 4 -90 10 -90 6 0 10 38 10 95 0 57 -4 95 -10 95 -5 0 -10 9 -10 20 0
19 -7 20 -245 20 l-245 0 0 85 0 85 85 0 85 0 0 83 c0 83 0 83 38 120 37 36
39 37 116 37 l77 0 -3 85 -3 85 33 0 32 0 0 -100 c0 -60 4 -100 10 -100 11 0
14 158 4 209 l-6 31 -1084 0 -1084 0 0 -110z m604 56 c-17 -8 -40 -26 -52 -41
l-22 -28 0 42 0 41 53 0 52 -1 -31 -13z m1171 -6 c-22 -11 -48 -32 -57 -47
l-17 -28 -1 48 0 47 58 0 57 0 -40 -20z m-1360 -14 c55 -23 65 -55 65 -216 l0
-140 -75 0 -75 0 0 72 c0 70 -1 73 -37 110 -37 38 -38 38 -115 38 l-78 0 0 75
0 75 140 0 c99 0 151 -4 175 -14z m495 -56 l0 -70 -77 0 c-75 0 -78 -1 -115
-37 -38 -37 -38 -37 -38 -120 l0 -83 -70 0 -70 0 0 150 c0 158 8 196 47 219
10 6 86 11 171 11 l152 0 0 -70z m684 56 c52 -22 66 -70 66 -226 l0 -130 -75
0 -75 0 0 72 c0 70 -1 73 -37 110 -37 38 -38 38 -115 38 l-78 0 0 75 0 75 140
0 c97 0 151 -4 174 -14z m486 -56 l0 -70 -69 0 c-66 0 -70 -1 -110 -39 l-41
-39 0 -81 0 -81 -75 0 -75 0 0 140 c0 231 9 240 222 240 l148 0 0 -70z m-1665
-554 c55 -23 65 -55 65 -216 l0 -140 -75 0 -75 0 0 72 c0 70 -1 73 -37 110
-37 38 -38 38 -115 38 l-78 0 0 75 0 75 140 0 c99 0 151 -4 175 -14z m65 -18
c0 -32 0 -32 -15 -11 -9 13 -23 27 -33 32 -14 9 -11 10 16 11 30 0 32 -2 32
-32z m430 -38 l0 -70 -72 0 c-71 0 -73 0 -115 -42 l-43 -42 0 -78 0 -78 -70 0
-70 0 0 138 c0 75 -3 160 -6 188 l-6 51 191 2 191 2 0 -71z m750 36 l0 -31
-24 30 c-13 17 -28 27 -32 23 -4 -5 -2 -8 5 -8 7 0 21 -19 31 -42 16 -36 20
-66 20 -175 l0 -133 -75 0 -75 0 0 72 c0 70 -1 73 -37 110 -37 38 -38 38 -115
38 l-78 0 0 75 0 76 190 -2 190 -2 0 -31z m97 23 c-10 -6 -27 -25 -38 -42
l-19 -32 0 43 0 42 38 0 c31 -1 34 -2 19 -11z m323 -59 l0 -70 -68 0 c-67 0
-69 -1 -110 -43 l-42 -43 0 -77 0 -77 -75 0 -75 0 0 140 c0 228 11 239 233
240 l137 0 0 -70z"/>
<path d="M2310 1600 c-11 -11 -20 -25 -20 -32 0 -6 1 -9 3 -7 1 2 13 16 26 32
28 31 21 37 -9 7z"/>
<path d="M1869 2025 c-31 -17 -46 -73 -29 -105 30 -56 91 -62 136 -13 29 32
31 66 3 104 -23 33 -65 38 -110 14z"/>
<path d="M2505 2006 c-21 -28 -26 -42 -20 -63 10 -43 44 -73 80 -73 112 0 114
148 3 166 -32 6 -38 2 -63 -30z"/>
<path d="M3045 2021 c-25 -15 -31 -26 -33 -58 -3 -46 25 -79 76 -89 27 -6 36
-2 62 26 16 18 30 42 30 54 0 21 -24 64 -44 78 -19 13 -60 8 -91 -11z"/>
<path d="M3690 2009 c-36 -39 -35 -77 2 -116 45 -48 130 -13 140 57 5 36 -32
76 -79 86 -28 5 -36 2 -63 -27z"/>
<path d="M330 1840 l0 -60 83 0 c82 0 82 0 110 -34 27 -35 27 -35 27 -195 l0
-161 66 0 65 0 -3 226 -3 226 -33 29 -32 29 -140 0 -140 0 0 -60z m291 40 c43
-24 49 -57 49 -275 l0 -205 -55 0 -55 0 0 156 0 155 -32 40 -31 39 -79 0 -78
0 0 50 0 50 131 0 c72 0 139 -5 150 -10z"/>
<path d="M280 1655 c0 -8 -6 -15 -14 -15 -17 0 -26 -22 -26 -60 0 -38 9 -60
26 -60 8 0 14 -7 14 -15 0 -21 76 -19 115 4 25 15 30 25 33 63 3 40 0 48 -28
72 -37 30 -120 38 -120 11z"/>
<path d="M1867 1411 c-12 -8 -23 -15 -24 -15 0 -1 -4 -17 -8 -37 -5 -30 -2
-41 20 -68 22 -25 30 -29 41 -20 11 9 14 8 14 -5 0 -14 4 -15 23 -5 39 20 67
52 67 76 0 30 -27 82 -43 85 -43 5 -71 2 -90 -11z"/>
<path d="M2511 1396 c-28 -28 -32 -39 -26 -64 9 -44 49 -77 88 -73 47 4 76 35
75 81 0 44 -27 74 -75 84 -24 6 -34 1 -62 -28z"/>
<path d="M3041 1408 c-27 -17 -30 -23 -19 -36 10 -12 10 -14 1 -8 -20 11 -16
-45 5 -72 10 -13 25 -24 32 -25 8 -2 20 -6 27 -10 17 -11 68 23 82 55 10 23
11 35 1 58 -25 60 -72 74 -129 38z"/>
<path d="M3691 1396 c-28 -29 -32 -38 -26 -69 4 -19 17 -44 29 -56 18 -17 27
-19 61 -11 53 12 97 70 63 83 -10 4 -10 6 0 6 6 1 12 7 12 14 0 19 -46 60 -59
53 -5 -4 -12 -2 -16 4 -11 18 -30 11 -64 -24z"/>
<path d="M330 926 l0 -66 82 0 c75 0 84 -2 110 -27 l28 -27 0 -163 0 -163 66
0 65 0 -3 225 -3 225 -28 27 c-27 28 -29 28 -172 31 l-145 3 0 -65z m312 26
c22 -22 23 -29 26 -242 l3 -220 -55 0 -56 0 0 157 0 157 -32 33 c-31 32 -35
33 -110 33 l-78 0 0 56 0 56 140 -4 c130 -3 141 -5 162 -26z"/>
<path d="M280 747 c0 -7 -9 -18 -20 -25 -31 -19 -26 -112 6 -112 8 0 14 -7 14
-15 0 -21 76 -19 115 4 52 31 45 124 -12 150 -33 15 -103 14 -103 -2z"/>
<path d="M2503 583 c-7 -15 -13 -33 -13 -40 0 -10 -6 -10 -25 3 -29 19 -31 14
-10 -25 l14 -28 -47 4 -47 4 23 -20 c13 -11 21 -25 17 -31 -3 -5 2 -10 12 -10
16 -1 15 -3 -4 -19 -30 -25 -29 -33 2 -25 l25 6 -15 -36 c-8 -20 -13 -36 -11
-36 14 0 62 27 72 39 9 12 12 9 18 -12 7 -30 21 -35 30 -11 6 15 8 15 32 -1
32 -21 36 -17 24 24 -7 27 -7 32 5 27 18 -7 19 6 3 22 -9 9 -7 12 9 12 28 0
38 16 16 25 -16 5 -15 8 7 25 l25 20 -27 0 c-21 0 -26 4 -21 16 5 13 2 15 -15
9 -20 -6 -21 -4 -12 19 11 30 8 32 -25 10 -23 -15 -24 -15 -31 20 -8 43 -15
45 -31 9z"/>
<path d="M1940 370 l0 -80 155 0 156 0 -3 78 -3 77 -152 3 -153 3 0 -81z m290
0 l0 -70 -140 0 -140 0 0 70 0 70 140 0 140 0 0 -70z"/>
<path d="M4860 2251 c0 -115 1 -119 23 -125 29 -8 385 -8 415 0 21 6 22 10 22
125 l0 119 -230 0 -230 0 0 -119z m338 102 c-60 -2 -156 -2 -215 0 -60 1 -11
3 107 3 118 0 167 -2 108 -3z m-288 -113 c0 -82 -3 -100 -15 -100 -12 0 -15
18 -15 100 0 82 3 100 15 100 12 0 15 -18 15 -100z m390 0 c0 -60 -4 -100 -10
-100 -6 0 -10 40 -10 100 0 60 4 100 10 100 6 0 10 -40 10 -100z m-210 -15 l0
-95 -85 0 -85 0 0 95 0 95 85 0 85 0 0 -95z m170 0 l0 -95 -80 0 -80 0 0 95 0
95 80 0 80 0 0 -95z"/>
<path d="M5987 2289 c-9 -10 -17 -26 -17 -34 0 -12 -4 -13 -19 -5 -30 16 -35
12 -17 -15 9 -13 16 -26 16 -28 0 -3 -20 -2 -45 1 -48 5 -58 -5 -25 -26 11 -7
20 -19 20 -27 0 -8 5 -15 12 -15 6 0 4 -7 -5 -18 -23 -25 -21 -31 4 -25 22 6
22 -1 2 -54 -7 -18 1 -16 41 7 35 19 35 19 41 0 8 -24 21 -26 33 -4 8 15 12
15 37 -2 l28 -18 -7 37 c-6 31 -4 37 10 37 13 0 14 3 5 14 -9 11 -6 15 16 21
l28 7 -24 13 -24 13 21 11 c27 15 28 31 2 31 -13 0 -17 5 -14 14 4 11 0 13
-17 9 -20 -5 -21 -3 -15 20 7 30 -5 35 -24 12 -15 -18 -30 -11 -30 15 0 28
-14 32 -33 9z"/>
<path d="M4628 1879 c-22 -12 -23 -27 -2 -50 15 -17 15 -20 -4 -46 -30 -43
-35 -83 -17 -137 15 -44 15 -49 1 -65 -37 -41 -5 -74 38 -40 24 18 27 19 55 4
35 -17 113 -20 143 -4 16 9 23 7 35 -10 17 -25 36 -27 53 -6 10 13 10 19 -4
34 -16 18 -16 21 3 57 25 46 27 113 5 155 -14 28 -14 32 2 50 14 15 14 21 4
34 -16 19 -34 19 -51 -1 -8 -10 -20 -13 -33 -9 -64 20 -89 22 -126 13 -36 -9
-44 -8 -63 10 -17 16 -26 18 -39 11z m36 -25 c4 -9 4 -19 2 -22 -10 -9 -36 8
-36 23 0 20 26 19 34 -1z m266 -19 c0 -19 -20 -29 -32 -17 -8 8 -7 16 2 26 14
17 30 12 30 -9z m-62 -12 c103 -76 94 -203 -18 -261 -36 -19 -55 -22 -95 -18
-156 17 -200 211 -64 284 54 29 134 27 177 -5z m-228 -268 c-12 -15 -40 -21
-40 -8 0 3 8 15 17 25 21 23 43 7 23 -17z m278 -13 c2 -12 -1 -22 -6 -22 -15
0 -34 28 -27 40 10 17 30 6 33 -18z"/>
<path d="M5650 1456 c0 -223 4 -253 43 -294 53 -57 77 -62 322 -62 l225 0 0
120 0 120 -123 0 -123 0 -52 53 -52 53 0 112 0 112 -120 0 -120 0 0 -214z
m230 97 l0 -107 57 -58 57 -58 118 0 118 0 0 -110 0 -110 -218 0 c-210 0 -221
1 -263 23 -78 42 -84 60 -87 310 l-3 217 110 0 111 0 0 -107z"/>
<path d="M6028 1569 c-23 -17 -28 -28 -28 -64 0 -37 5 -47 30 -65 38 -27 97
-25 92 4 -2 12 1 15 8 11 34 -21 40 70 7 108 -28 33 -70 35 -109 6z"/>
<path d="M5198 813 c-15 -4 -18 -16 -18 -74 l0 -69 535 0 535 0 0 69 c0 63 -2
69 -22 75 -26 7 -1004 6 -1030 -1z m1042 -73 l0 -60 -525 0 -525 0 0 60 0 60
525 0 525 0 0 -60z"/>
<path d="M4331 4848 c-12 -33 -2 -57 27 -65 31 -7 56 7 60 36 5 31 -15 51 -50
51 -20 0 -31 -6 -37 -22z m70 -4 c17 -21 0 -49 -32 -49 -24 0 -36 23 -25 51 7
19 40 18 57 -2z"/>
<path d="M4438 4858 c-2 -7 -1 -29 3 -48 l6 -35 2 33 c1 20 6 32 15 32 9 0 16
-13 19 -32 l4 -33 1 33 c2 40 22 43 22 2 0 -16 5 -30 10 -30 6 0 10 16 10 35
0 29 -4 35 -22 36 -22 0 -22 1 -3 9 19 8 19 9 -2 9 -13 1 -23 -3 -23 -9 0 -5
-8 -10 -17 -10 -15 0 -16 2 -3 10 13 8 13 10 -1 10 -9 0 -19 -6 -21 -12z"/>
<path d="M4720 4825 c0 -44 0 -45 33 -44 23 1 26 3 10 6 -19 4 -23 11 -23 44
0 21 -4 39 -10 39 -5 0 -10 -20 -10 -45z"/>
<path d="M5088 4858 c-6 -19 6 -71 17 -75 8 -2 11 30 6 80 -1 12 -19 8 -23 -5z"/>
<path d="M5175 4860 c-9 -14 3 -30 31 -40 13 -5 24 -14 24 -20 0 -14 -33 -13
-49 3 -11 10 -13 9 -9 -3 7 -22 62 -20 66 3 3 12 -6 21 -27 28 -35 12 -31 33
5 26 13 -2 21 0 18 4 -7 12 -51 11 -59 -1z"/>
<path d="M5533 4825 c0 -27 2 -38 4 -22 2 15 2 37 0 50 -2 12 -4 0 -4 -28z"/>
<path d="M4544 4836 c-10 -26 1 -51 24 -54 12 -2 22 1 22 6 0 5 -8 9 -17 8
-12 -1 -18 6 -18 19 0 13 6 20 17 19 10 -1 15 2 12 7 -8 14 -34 11 -40 -5z"/>
<path d="M4614 4836 c-15 -39 23 -74 50 -46 8 9 6 11 -11 6 -12 -4 -24 -2 -28
4 -4 6 4 10 20 10 20 0 26 4 23 18 -4 22 -46 29 -54 8z m36 -6 c0 -5 -7 -10
-16 -10 -8 0 -12 5 -9 10 3 6 10 10 16 10 5 0 9 -4 9 -10z"/>
<path d="M4806 4841 c-4 -5 3 -7 14 -4 11 3 20 0 20 -6 0 -6 -9 -11 -19 -11
-19 0 -35 -23 -24 -34 4 -3 17 -6 30 -6 20 0 23 5 23 35 0 28 -4 35 -19 35
-11 0 -22 -4 -25 -9z m29 -41 c-3 -5 -10 -10 -16 -10 -5 0 -9 5 -9 10 0 6 7
10 16 10 8 0 12 -4 9 -10z"/>
<path d="M4877 4825 c3 -16 6 -41 6 -54 -1 -12 2 -19 6 -15 15 17 41 94 32 94
-5 0 -12 -12 -16 -27 l-7 -28 -14 30 -14 30 7 -30z"/>
<path d="M4941 4832 c-12 -23 4 -52 29 -52 23 0 36 36 20 55 -17 20 -37 19
-49 -3z m42 -4 c6 -19 -3 -38 -19 -38 -8 0 -14 10 -14 25 0 26 25 35 33 13z"/>
<path d="M5012 4818 c2 -28 8 -34 31 -36 25 -3 27 -1 26 35 -1 35 -2 36 -8 9
-9 -41 -31 -46 -31 -7 0 17 -5 31 -11 31 -6 0 -9 -14 -7 -32z"/>
<path d="M5266 4842 c-3 -6 3 -8 14 -5 11 3 20 1 20 -5 0 -5 -9 -12 -20 -15
-33 -9 -25 -37 11 -37 28 0 30 2 27 33 -2 24 -8 33 -25 35 -11 2 -24 -1 -27
-6z m34 -42 c0 -5 -7 -10 -16 -10 -8 0 -12 5 -9 10 3 6 10 10 16 10 5 0 9 -4
9 -10z"/>
<path d="M5330 4815 c0 -19 5 -35 10 -35 6 0 10 14 10 31 0 39 22 34 31 -7 l7
-29 1 33 c1 41 23 39 33 -4 6 -27 6 -27 5 6 -2 34 -3 35 -49 38 l-48 2 0 -35z"/>
<path d="M5450 4803 c0 -26 4 -43 8 -37 4 7 16 13 27 15 15 3 20 12 20 34 0
25 -4 31 -27 33 -27 3 -28 2 -28 -45z m47 21 c8 -21 -13 -42 -28 -27 -13 13
-5 43 11 43 6 0 13 -7 17 -16z"/>
<path d="M5564 4836 c-15 -39 23 -74 50 -46 8 9 6 11 -11 6 -12 -4 -24 -2 -28
4 -4 6 5 10 20 10 21 0 26 4 21 16 -3 9 -6 18 -6 20 0 11 -41 2 -46 -10z m36
-6 c0 -5 -7 -10 -16 -10 -8 0 -12 5 -9 10 3 6 10 10 16 10 5 0 9 -4 9 -10z"/>
</g>
</svg>
